<svg width="398" height="91" viewBox="0 0 398 91" fill="none" xmlns="http://www.w3.org/2000/svg">
<mask id="mask0_2042_7" style="mask-type:luminance" maskUnits="userSpaceOnUse" x="0" y="0" width="398" height="91">
<path d="M0.666687 0.385376H398V90.6666H0.666687V0.385376Z" fill="white"/>
</mask>
<g mask="url(#mask0_2042_7)">
<path fill-rule="evenodd" clip-rule="evenodd" d="M91.0781 0.385376H1.54688V90.2708H91.0729V58.8958H76.2188C71.0938 70.3437 59.5677 78.3125 46.375 78.3125C28.1875 78.3125 13.4583 63.401 13.4583 45.2656C13.4583 27.1354 28.1875 12.3437 46.375 12.3437C59.8229 12.3437 71.3542 20.5781 76.474 32.276H91.0781V0.385376ZM177.781 58.8958C172.526 70.3385 161.13 78.3125 147.807 78.3125C130.135 78.3125 115.661 64.1666 115.021 46.552H192.635V0.385376H103.109V90.2708H192.635V58.8958H177.781ZM178.927 35.4895H116.422C120.391 20.7031 133.583 12.3437 147.802 12.3437C162.021 12.3437 174.318 20.1875 178.927 35.4895ZM385.964 45.2656C385.964 63.526 371.359 78.3125 353.172 78.3125C335.115 78.3125 320.385 63.3958 320.385 45.2656C320.385 27.1302 334.99 12.3437 353.172 12.3437C371.359 12.3437 385.964 27.0052 385.964 45.2656ZM398 0.385376H308.474V90.2708H398V0.385376ZM282.422 58.8958H297.281V90.2708H204.552V0.385376H219.661V45.2656C219.661 65.3281 234.521 78.1875 252.198 78.1875C265.901 78.1875 277.938 70.7291 282.422 58.8958Z" fill="black"/>
</g>
</svg>
